<?xml version="1.0" encoding="UTF-8" standalone="no"?>
<!-- Created with Inkscape (http://www.inkscape.org/) -->

<svg
   width="189.25999mm"
   height="43.395mm"
   viewBox="0 0 189.26 43.395"
   version="1.1"
   id="svg1"
   inkscape:version="1.3.2 (091e20ef0f, 2023-11-25, custom)"
   sodipodi:docname="sig-inv.svg"
   xmlns:inkscape="http://www.inkscape.org/namespaces/inkscape"
   xmlns:sodipodi="http://sodipodi.sourceforge.net/DTD/sodipodi-0.dtd"
   xmlns="http://www.w3.org/2000/svg"
   xmlns:svg="http://www.w3.org/2000/svg">
  <sodipodi:namedview
     id="namedview1"
     pagecolor="#000000"
     bordercolor="#eeeeee"
     borderopacity="1"
     inkscape:showpageshadow="0"
     inkscape:pageopacity="0"
     inkscape:pagecheckerboard="true"
     inkscape:deskcolor="#d1d1d1"
     inkscape:document-units="mm"
     inkscape:zoom="2.5560926"
     inkscape:cx="357.57702"
     inkscape:cy="81.374203"
     inkscape:window-width="1918"
     inkscape:window-height="1055"
     inkscape:window-x="0"
     inkscape:window-y="23"
     inkscape:window-maximized="1"
     inkscape:current-layer="layer1" />
  <defs
     id="defs1">
    <inkscape:path-effect
       effect="powerstroke"
       id="path-effect4"
       is_visible="true"
       lpeversion="1.3"
       scale_width="1"
       interpolator_type="CubicBezierJohan"
       interpolator_beta="0.2"
       start_linecap_type="zerowidth"
       end_linecap_type="zerowidth"
       offset_points="2.4419241,4.9043808"
       linejoin_type="extrp_arc"
       miter_limit="4"
       not_jump="false"
       sort_points="true"
       message=" db©/" />
    <inkscape:path-effect
       effect="powerstroke"
       id="path-effect3"
       is_visible="true"
       lpeversion="1.3"
       scale_width="1"
       interpolator_type="CubicBezierJohan"
       interpolator_beta="0.2"
       start_linecap_type="zerowidth"
       end_linecap_type="zerowidth"
       offset_points="3.8122608,31.191153"
       linejoin_type="extrp_arc"
       miter_limit="4"
       not_jump="false"
       sort_points="true"
       message="Ðcb©/" />
    <inkscape:path-effect
       effect="powerstroke"
       id="path-effect1"
       is_visible="true"
       lpeversion="1.3"
       scale_width="1"
       interpolator_type="CubicBezierJohan"
       interpolator_beta="0.2"
       start_linecap_type="zerowidth"
       end_linecap_type="zerowidth"
       offset_points="2.1186086,1.9815694"
       linejoin_type="extrp_arc"
       miter_limit="4"
       not_jump="false"
       sort_points="true"
       message="ðbb©/" />
  </defs>
  <g
     inkscape:label="Layer 1"
     inkscape:groupmode="layer"
     id="layer1"
     transform="translate(-7.7007682,-102.7348)">
    <path
       style="fill:#ffffff;fill-rule:nonzero;stroke:#ffffff;stroke-width:1.4;stroke-linecap:round;stroke-linejoin:round;stroke-dasharray:none;stroke-opacity:1;paint-order:normal;fill-opacity:1"
       d="m 75.871273,-42.570903 c -0.02871,-2.058646 -0.140427,-4.51202 -0.610887,-6.630626 -0.188541,-0.84905 -0.436796,-1.656684 -0.767454,-2.38323 -0.304959,-0.67008 -0.683674,-1.2795 -1.159897,-1.794453 -0.45161,-0.488338 -0.99049,-0.891159 -1.633576,-1.179006 -0.618635,-0.276903 -1.319475,-0.440953 -2.106289,-0.480266 -0.765345,-0.03824 -1.602389,0.04197 -2.51273,0.242536 -0.896733,0.197569 -1.861631,0.511245 -2.896497,0.940748 -0.499754,0.206768 -1.071079,0.492279 -1.69758,0.8433 -0.627847,0.351775 -1.317273,0.772833 -2.05264,1.252632 -1.479114,0.965066 -3.147264,2.169828 -4.879979,3.532391 -3.588213,2.82168 -7.36224,6.245687 -10.432685,9.673395 -1.615203,1.80314 -3.028004,3.597656 -4.144976,5.326066 -0.581403,0.899668 -1.085067,1.785049 -1.49767,2.650031 -0.426487,0.894086 -0.759915,1.775172 -0.98042,2.636507 -0.229762,0.897495 -0.340091,1.786066 -0.298057,2.652345 0.04447,0.916431 0.259016,1.790917 0.661574,2.598822 0.427887,0.858736 1.039041,1.583909 1.780332,2.182399 0.793458,0.640607 1.722325,1.125803 2.719835,1.49242 l -0.03064,-0.01121 c 0.737664,0.289224 1.54289,0.486815 2.337101,0.625112 0.816433,0.142166 1.66577,0.229226 2.489852,0.280102 0.101145,0.0062 0.203861,0.01209 0.30818,0.01751 1.812073,0.09429 4.101568,0.0633 7.02704,-0.151596 4.731894,-0.347585 10.959355,-1.164137 19.094505,-2.600369 13.403902,-2.366412 30.36555,-6.129115 49.70229,-10.875428 12.65476,-3.140665 25.26785,-6.446615 36.6302,-9.496592 5.49929,-1.476164 10.55637,-2.852264 14.97093,-4.060184 2.80405,-0.767249 8.42962,-2.316411 11.23367,-3.083659 5.81139,-1.529326 11.21081,-2.590129 16.17573,-3.185815 5.3423,-0.640965 10.07747,-0.731101 14.24582,-0.338553 4.72434,0.444908 8.59985,1.498273 11.77852,2.963222 4.04409,1.863794 6.81093,4.32613 8.73218,6.759906 -1.91769,-2.429274 -4.646,-4.937331 -8.66609,-6.899211 -3.16331,-1.543756 -7.039,-2.706919 -11.79561,-3.280196 -4.19662,-0.505786 -8.97637,-0.53979 -14.38309,-0.02894 -5.02431,0.474718 -10.49392,1.411 -16.38696,2.81416 -3.00252,0.681716 -6.80734,1.584918 -11.34601,2.676786 -3.04811,0.733286 -12.02573,2.910275 -15.07384,3.64356 -11.50184,2.778599 -24.02615,5.774515 -36.79131,8.669202 -19.43723,4.460296 -36.261199,7.944485 -49.63759,10.113274 -8.092272,1.312045 -14.18306,2.021516 -18.748784,2.306204 -2.817226,0.175664 -4.94047,0.182398 -6.553659,0.09671 -0.09242,-0.0049 -0.183045,-0.01012 -0.271916,-0.0156 -0.730841,-0.04512 -1.439173,-0.113608 -2.087139,-0.214879 -0.64082,-0.100153 -1.183822,-0.226452 -1.6176,-0.376296 0.09135,0.03156 0.183524,0.06067 0.276425,0.08731 -0.102921,-0.03106 -0.205296,-0.0639 -0.307077,-0.09852 -0.708884,-0.241069 -1.258623,-0.523532 -1.673326,-0.829489 -0.377363,-0.278409 -0.646323,-0.578253 -0.832642,-0.899915 -0.17602,-0.303883 -0.303442,-0.670415 -0.353731,-1.129508 -0.04849,-0.442678 -0.02523,-0.974637 0.10178,-1.607637 0.121916,-0.607603 0.335401,-1.287962 0.652039,-2.040736 0.305617,-0.726575 0.70062,-1.504704 1.184883,-2.330098 0.933446,-1.590996 2.166989,-3.303965 3.640346,-5.085357 2.805399,-3.391926 6.322049,-6.8385 9.708145,-9.751463 1.628812,-1.401222 3.187686,-2.644239 4.555161,-3.65099 0.679488,-0.500247 1.306486,-0.938299 1.86729,-1.306478 0.56295,-0.369587 1.04746,-0.661058 1.447223,-0.874915 0.919126,-0.483366 1.759982,-0.852315 2.529117,-1.114204 0.779556,-0.265438 1.481594,-0.419494 2.114153,-0.473212 0.647715,-0.05501 1.227229,-0.0054 1.749622,0.140345 0.544021,0.151762 1.035315,0.410413 1.479113,0.775121 0.470965,0.387033 0.882284,0.888681 1.23732,1.490351 0.384674,0.651894 0.694804,1.406833 0.942039,2.229397 0.619723,2.06186 0.827081,4.497234 0.855941,6.566762 z"
       id="path1"
       transform="matrix(0.66594066,0,0,0.66594066,14.903074,147.40539)"
       sodipodi:nodetypes="cscssc"
       inkscape:highlight-color="#4526ae"
       inkscape:original-d="m 75.871273,-42.570903 c -0.147259,-10.559855 -3.518353,-14.083428 -11.297317,-10.449429 -7.190389,3.359043 -34.810644,27.097227 -20.559716,32.173448 8.867014,3.327158 45.201413,-4.058639 79.93784,-12.307038 25.92594,-6.156291 50.96173,-12.793101 63.02297,-15.81499 22.77059,-5.705066 41.79089,-4.973209 51.082,6.796473"
       inkscape:path-effect="#path-effect1" />
  </g>
</svg>
